<svg id="Camada_1" data-name="Camada 1" xmlns="http://www.w3.org/2000/svg" viewBox="0 0 790.47 374.72"><defs><style>.cls-1{fill:#f3f3f3;}</style></defs><path class="cls-1" d="M295.29,489.33h54.57v21.36h-81V349.3h26.47Z" transform="translate(-144.49 -308.74)"/><path class="cls-1" d="M394.68,504.54a59.24,59.24,0,0,1-23-23.23q-8.35-15-8.36-34.71,0-19.52,8.59-34.6a59.26,59.26,0,0,1,23.46-23.22,71.87,71.87,0,0,1,66.41,0A59.23,59.23,0,0,1,485.24,412q8.6,15.09,8.6,34.6T485,481.2a61.19,61.19,0,0,1-24,23.34,69.35,69.35,0,0,1-33.56,8.24A65.55,65.55,0,0,1,394.68,504.54Zm51.9-19.63a37.06,37.06,0,0,0,14.51-14.63q5.58-9.75,5.58-23.68T461.32,423a36,36,0,0,0-14.16-14.52,38.76,38.76,0,0,0-19-4.87,38.1,38.1,0,0,0-18.93,4.87A34.77,34.77,0,0,0,395.38,423q-5.11,9.63-5.11,23.57,0,20.67,10.56,31.93t26.59,11.26A39.31,39.31,0,0,0,446.58,484.91Z" transform="translate(-144.49 -308.74)"/><path class="cls-1" d="M519.26,411.88a56.91,56.91,0,0,1,22.18-23.1q14.16-8.13,32.51-8.13,23.22,0,38.43,11t20.55,31.46H604.37a30.22,30.22,0,0,0-11.15-14.86q-7.66-5.34-19.27-5.34-16.26,0-25.89,11.5t-9.64,32.16q0,20.67,9.64,32.28T574,490.49q23,0,30.42-20.21h28.56q-5.58,19.52-20.9,31T574,512.78q-18.35,0-32.51-8.24a57.75,57.75,0,0,1-22.18-23.23q-8-15-8-34.71T519.26,411.88Z" transform="translate(-144.49 -308.74)"/><path class="cls-1" d="M658.59,412A58.35,58.35,0,0,1,711,380.65q15.1,0,26.36,5.92a53.44,53.44,0,0,1,18,14.75V382.74H782v128H755.31v-19A52.57,52.57,0,0,1,737,506.74a59.36,59.36,0,0,1-56.67-2.44,60.11,60.11,0,0,1-21.71-23.68q-8-15.21-8-34.49T658.59,412Zm91.26,11.61a38.24,38.24,0,0,0-14.28-14.86,37.31,37.31,0,0,0-19-5.11,38,38,0,0,0-19,5,37.59,37.59,0,0,0-14.28,14.63q-5.46,9.64-5.46,22.87t5.46,23.22a38.48,38.48,0,0,0,14.39,15.22,37.47,37.47,0,0,0,38,.11,38.11,38.11,0,0,0,14.28-15q5.46-9.85,5.46-23.1T749.85,423.61Z" transform="translate(-144.49 -308.74)"/><path class="cls-1" d="M172.36,677.3a48,48,0,0,1-20.44-16.14,41,41,0,0,1-7.43-24.38h28.33A25.56,25.56,0,0,0,181.07,654q7.32,6.74,20.55,6.74,13.69,0,21.36-6.62A21.51,21.51,0,0,0,230.65,637q0-8.13-4.76-13.24A32,32,0,0,0,214,615.88a178.4,178.4,0,0,0-19.62-6,183.49,183.49,0,0,1-25.66-8.47A42.5,42.5,0,0,1,151.92,588q-7-9.06-7-24.15,0-13.93,7-24.38a44.48,44.48,0,0,1,19.51-16q12.54-5.58,29-5.58,23.44,0,38.43,11.73t16.6,32.16H226.24q-.7-8.82-8.37-15.09t-20.2-6.27q-11.37,0-18.58,5.8t-7.2,16.72a17,17,0,0,0,4.53,12.19,31.91,31.91,0,0,0,11.5,7.55,178.09,178.09,0,0,0,19,6,199.36,199.36,0,0,1,26.13,8.82,43.61,43.61,0,0,1,17.18,13.59q7.08,9.18,7.08,24.5a44,44,0,0,1-6.62,23.22q-6.61,10.92-19.27,17.53T201.62,683A72.15,72.15,0,0,1,172.36,677.3Z" transform="translate(-144.49 -308.74)"/><path class="cls-1" d="M405,627.26H307.28q1.16,15.33,11.37,24.61t25.09,9.29q21.36,0,30.18-17.88h28.57a57.63,57.63,0,0,1-21,28.91q-15.21,11.26-37.73,11.27-18.36,0-32.86-8.25A58.59,58.59,0,0,1,288.12,652q-8.25-15-8.24-34.72t8-34.72a56.39,56.39,0,0,1,22.52-23.1q14.52-8.13,33.33-8.13,18.11,0,32.27,7.9a55.69,55.69,0,0,1,22.06,22.17q7.9,14.29,7.9,32.86A82.73,82.73,0,0,1,405,627.26Zm-26.71-21.37q-.22-14.62-10.44-23.45t-25.32-8.82a34,34,0,0,0-23.45,8.7q-9.75,8.71-11.61,23.57Z" transform="translate(-144.49 -308.74)"/><path class="cls-1" d="M431.16,582.67a58.35,58.35,0,0,1,52.37-31.35q15.09,0,26.35,5.92a53.56,53.56,0,0,1,18,14.75V553.41h26.71v128H527.88v-19a52.61,52.61,0,0,1-18.34,15.1A59.34,59.34,0,0,1,452.88,675a60.08,60.08,0,0,1-21.72-23.69q-8-15.21-8-34.48T431.16,582.67Zm91.26,11.61a38.37,38.37,0,0,0-14.28-14.86,37.41,37.41,0,0,0-19-5.11,38,38,0,0,0-19,5,37.56,37.56,0,0,0-14.28,14.62q-5.46,9.65-5.46,22.88T455.78,640a38.41,38.41,0,0,0,14.4,15.21,36.91,36.91,0,0,0,18.92,5.23,37.41,37.41,0,0,0,19-5.11,38.17,38.17,0,0,0,14.28-15q5.46-9.87,5.46-23.11T522.42,594.28Z" transform="translate(-144.49 -308.74)"/><path class="cls-1" d="M631.34,556.78q9.63-5.46,22.87-5.46v27.4h-6.74q-15.56,0-23.57,7.9t-8,27.4v67.34H589.42v-128h26.47V572A41.58,41.58,0,0,1,631.34,556.78Z" transform="translate(-144.49 -308.74)"/><path class="cls-1" d="M677.77,582.55A57.1,57.1,0,0,1,700,559.45q14.16-8.13,32.51-8.13,23.22,0,38.43,11t20.56,31.47H762.88A30.15,30.15,0,0,0,751.74,579q-7.66-5.34-19.28-5.34-16.25,0-25.89,11.49t-9.64,32.16q0,20.67,9.64,32.28t25.89,11.61q23,0,30.42-20.2h28.57q-5.58,19.5-20.9,31t-38.09,11.5q-18.35,0-32.51-8.25A57.86,57.86,0,0,1,677.77,652q-8-15-8-34.72T677.77,582.55Z" transform="translate(-144.49 -308.74)"/><path class="cls-1" d="M910.22,557.59a44.69,44.69,0,0,1,18.12,18.58Q935,588.49,935,605.89v75.47H908.72V609.84q0-17.18-8.59-26.35t-23.46-9.18q-14.86,0-23.57,9.18t-8.71,26.35v71.52H817.92l.59-372.62h25.7l.18,259.53a44.57,44.57,0,0,1,17.07-12.54,57.28,57.28,0,0,1,22.64-4.41A53.64,53.64,0,0,1,910.22,557.59Z" transform="translate(-144.49 -308.74)"/><path class="cls-1" d="M449.83,441.59c0,5-4,14.87-11.4,28.62-4.08,7.54-8.21,14.32-10.23,17.61-2.05-3.29-6.15-10.07-10.25-17.61-7.45-13.75-11.37-23.65-11.37-28.62a21.63,21.63,0,1,1,43.25,0Zm-10-1.63a11.69,11.69,0,1,0-11.67,11.37A11.56,11.56,0,0,0,439.87,440Z" transform="translate(-144.49 -308.74)"/><path class="cls-1" d="M428.2,416.92a24.73,24.73,0,0,1,24.7,24.67c0,13.09-22.47,48.46-23.4,50a1.58,1.58,0,0,1-1.3.72,1.49,1.49,0,0,1-1.29-.72c-1-1.51-23.41-36.88-23.41-50A24.71,24.71,0,0,1,428.2,416.92Zm10.23,53.29c7.44-13.75,11.4-23.65,11.4-28.62a21.63,21.63,0,1,0-43.25,0c0,5,3.92,14.87,11.37,28.62,4.1,7.54,8.2,14.32,10.25,17.61C430.22,484.53,434.35,477.75,438.43,470.21Z" transform="translate(-144.49 -308.74)"/><path class="cls-1" d="M428.2,428.59A11.37,11.37,0,1,1,416.5,440,11.56,11.56,0,0,1,428.2,428.59ZM436.8,440a8.62,8.62,0,1,0-8.6,8.29A8.47,8.47,0,0,0,436.8,440Z" transform="translate(-144.49 -308.74)"/></svg>